# xmcd CD database file
#
# Track frame offsets:
#	150
#	20037
#	35212
#	50215
#	67930
#	86437
#	105230
#	122305
#	142830
#	159932
#	179182
#
# Disc length: 2625 seconds
#
# Revision: 2
# Processed by: cddbd v1.4PL0 Copyright (c) Steve Scherf et al.
# Submitted via: CDex 1.40Release
#
DISCID=8e0a3f0b
DTITLE=Sammy Kershaw - The Hits Chapter 2
DYEAR=2000
DGENRE=Country
TTITLE0=Love Of My Life
TTITLE1=Vidalia
TTITLE2=Politics, Religion And Her
TTITLE3=Matches
TTITLE4=Lousiana Hot Sauce
TTITLE5=Maybe Not Tonight (Duet With Lorrie Morgan)
TTITLE6=Meant To Be
TTITLE7=Southbound
TTITLE8=Me And Maxine
TTITLE9=When You Love Someone
TTITLE10=Honky Tonk America
EXTD=YEAR: 2000 ID3G: 2
EXTT0=
EXTT1=
EXTT2=
EXTT3=
EXTT4=
EXTT5=
EXTT6=
EXTT7=
EXTT8=
EXTT9=
EXTT10=
PLAYORDER=
